#!OML:ASF F:\VICON\USERDATA\INSTALL\rory3\rory3.ASF
:FULLY-SPECIFIED
:DEGREES
19
root 5.08848 17.7604 -15.984699999999961 -1.393129999999998 -4.02035 -4.840490000000004
lfemur -25.818199999999976 -1.45489 -17.2449
ltibia 29.8667
lfoot -1.9255499999999963 -4.50588
ltoes 1.2593100000000081
rfemur 5.553319999999982 4.28824 28.733100000000004
rtibia 46.880500000000005
rfoot 2.4019600000000114 2.568120000000012
rtoes -6.478369999999991
lowerback 1.0 1.6094999999999977 4.980909999999996
upperback 0.23234899999999997 2.852370000000004 1.4625799999999993
thorax -5.72813 1.2837500000000008 -1.7107800000000022
lowerneck -17.127 -3.4338300000000017 -1.3627600000000006
upperneck 21.6757 -4.354500000000001 -0.2544199999999992
head 9.721989999999998 -2.1615700000000007 -0.4409709999999996
lclavicle -2.4102600000000038e-15 -1.6598499999999977e-14
lhumerus -36.045300000000005 13.07259999999998 78.032
lradius 18.187400000000018
lwrist -1.6393099999999858
lhand -25.457899999999995 22.6681
lfingers 7.12502
lthumb 1.0693300000000012 52.6452
rclavicle -2.4102600000000038e-15 -1.6598499999999977e-14
rhumerus -23.956099999999992 -15.8853 -79.6078
rradius 27.251
rwrist 3.32478
rhand -18.607600000000005 1.0
rfingers 7.12502
rthumb 7.683869999999999 -8.09661
20
root 5.19012 17.8448 -15.213300000000004 -1.75702 -5.194049999999995 -2.9220599999999997
lfemur -22.669899999999977 -1.1106000000000007 -19.9187
ltibia 29.9505
lfoot -3.6133099999999967 -3.3096200000000002
ltoes 9.204899999999974
rfemur -0.6918489999999959 4.80966 25.469700000000003
rtibia 57.44490000000002
rfoot 13.569800000000022 3.999449999999995
rtoes 12.995799999999997
lowerback 1.0 1.8929000000000036 3.252539999999996
upperback 0.32598700000000014 2.9875400000000023 1.1408700000000005
thorax -5.660549999999999 1.3958199999999978 -1.0975100000000053
lowerneck -16.8171 -3.2165399999999993 -1.77419
upperneck 22.0655 -4.00724 -0.014430799999998523
head 9.81617 -2.007439999999999 -0.24241399999999963
lclavicle 3.600489999999995e-14 2.1866300000000033e-15
lhumerus -35.640299999999996 12.302700000000005 79.0438
lradius 18.76100000000001
lwrist -0.9057260000000031
lhand -25.409000000000002 22.1284
lfingers 7.12502
lthumb 1.1165400000000032 52.1052
rclavicle 3.600489999999995e-14 2.1866300000000033e-15
rhumerus -24.608599999999992 -17.207 -78.8613
rradius 25.8753
rwrist 3.4808200000000022
rhand -14.049200000000003 1.0
rfingers 7.12502
rthumb 12.081699999999996 -3.27715
21
root 5.410823878825837 18.03283697886644 2.0031015937624987 -4.27812929614149 -3.793501231057818 -1.4069147801185509
lfemur -18.91520018113372 -1.6538989512586852 -21.941942357159476
ltibia 32.72243388639417
lfoot -6.756728241161978 -0.34716409127946246
ltoes 1.9446946273569505
rfemur -3.229894534922922 3.1746862461232306 24.415550233606616
rtibia 67.27856556162463
rfoot 20.737958387674983 1.0670993749486737
rtoes 32.11069272526582
lowerback 1.0 1.873614422502809 0.8381616714508427
upperback 0.7322654188265834 2.5713764435915767 0.7875790662858194
thorax -5.196493513997846 1.3000964760323055 -0.5894752197583066
lowerneck -17.936944046451295 -2.916140502370188 -1.725723832631095
upperneck 19.83976667031234 -3.7440142954370152 0.3756935402316651
head 10.057712627740127 -1.8435045043407325 -0.3020347218598439
lclavicle 7.61475988401884e-17 -2.428749851823804e-15
lhumerus -36.61920753315784 10.438607900701797 78.26211818714688
lradius 23.981228334357805
lwrist 1.807586458109507
lhand -26.086640751208865 21.306446900014734
lfingers nan
lthumb 0.3603843754161692 51.00585487584625
rclavicle -8.322000173661515e-16 -3.10653439120215e-15
rhumerus -25.226598144504056 -21.398243352318328 -78.4307294591771
rradius 25.907265294588292
rwrist 5.705743612654789
rhand -17.189595377600455 1.0
rfingers nan
rthumb 8.94924452010017 -6.040196804479167
22
root 5.491549001262373 18.096994986936288 1.4458118153572528 -4.150712247314398 -3.697152487216072 -0.7942893087452674
lfemur -14.523833878062229 -1.8046927429375086 -23.306182044728946
ltibia 31.377865426098897
lfoot -8.404627941408476 1.6155110106394783
ltoes 1.8501262407964933
rfemur -8.375766126284585 1.0077382752752966 23.39660686160037
rtibia 73.29152414273953
rfoot 13.41584665435229 -3.2173133170615387
rtoes 20.619520999720564
lowerback 1.0 1.3667961337754722 -0.42982153188344874
upperback 0.6344961322980017 1.877922483665761 0.8387009941535841
thorax -5.448283614549881 1.0207862199465523 -0.02387927607120277
lowerneck -17.675215799461917 -2.9035250675042485 -1.5508279547259904
upperneck 20.526984359473172 -3.449189560290346 0.3163460842060738
head 10.152930457700752 -1.7604635302113791 -0.35173557599620114
lclavicle -3.7910470458817766e-15 -3.3429898299499424e-15
lhumerus -36.66532474936717 10.46019209577656 78.28051669741392
lradius 27.291718093504564
lwrist 3.063626009378301
lhand -27.234855042715676 19.99230379400223
lfingers nan
lthumb -1.0222161341736395 48.95761206484978
rclavicle -6.323318800522252e-15 -3.9335714557754884e-15
rhumerus -25.959356122992524 -22.53190138115781 -77.39199359650829
rradius 25.729605587276524
rwrist 5.698185949489977
rhand -17.09872803442681 1.0
rfingers nan
rthumb 8.885067327407763 -6.943279611327578
